%TF.GenerationSoftware,KiCad,Pcbnew,9.0.4*%
%TF.CreationDate,2025-09-18T14:16:59+03:00*%
%TF.ProjectId,HidroNode_Project,48696472-6f4e-46f6-9465-5f50726f6a65,rev?*%
%TF.SameCoordinates,Original*%
%TF.FileFunction,Soldermask,Bot*%
%TF.FilePolarity,Negative*%
%FSLAX46Y46*%
G04 Gerber Fmt 4.6, Leading zero omitted, Abs format (unit mm)*
G04 Created by KiCad (PCBNEW 9.0.4) date 2025-09-18 14:16:59*
%MOMM*%
%LPD*%
G01*
G04 APERTURE LIST*
G04 Aperture macros list*
%AMRoundRect*
0 Rectangle with rounded corners*
0 $1 Rounding radius*
0 $2 $3 $4 $5 $6 $7 $8 $9 X,Y pos of 4 corners*
0 Add a 4 corners polygon primitive as box body*
4,1,4,$2,$3,$4,$5,$6,$7,$8,$9,$2,$3,0*
0 Add four circle primitives for the rounded corners*
1,1,$1+$1,$2,$3*
1,1,$1+$1,$4,$5*
1,1,$1+$1,$6,$7*
1,1,$1+$1,$8,$9*
0 Add four rect primitives between the rounded corners*
20,1,$1+$1,$2,$3,$4,$5,0*
20,1,$1+$1,$4,$5,$6,$7,0*
20,1,$1+$1,$6,$7,$8,$9,0*
20,1,$1+$1,$8,$9,$2,$3,0*%
G04 Aperture macros list end*
%ADD10C,3.800000*%
%ADD11C,1.800000*%
%ADD12R,2.000000X3.000000*%
%ADD13O,2.000000X3.000000*%
%ADD14C,5.500000*%
%ADD15R,1.700000X1.700000*%
%ADD16O,1.700000X1.700000*%
%ADD17C,1.000000*%
%ADD18RoundRect,0.200000X0.200000X0.450000X-0.200000X0.450000X-0.200000X-0.450000X0.200000X-0.450000X0*%
%ADD19O,0.800000X1.300000*%
%ADD20C,4.700000*%
%ADD21RoundRect,0.225000X0.225000X0.475000X-0.225000X0.475000X-0.225000X-0.475000X0.225000X-0.475000X0*%
%ADD22O,0.900000X1.400000*%
%ADD23C,2.020000*%
%ADD24RoundRect,0.225000X-0.475000X0.225000X-0.475000X-0.225000X0.475000X-0.225000X0.475000X0.225000X0*%
%ADD25O,1.400000X0.900000*%
%ADD26RoundRect,0.237500X-0.237500X0.250000X-0.237500X-0.250000X0.237500X-0.250000X0.237500X0.250000X0*%
%ADD27RoundRect,0.237500X0.250000X0.237500X-0.250000X0.237500X-0.250000X-0.237500X0.250000X-0.237500X0*%
%ADD28RoundRect,0.237500X-0.250000X-0.237500X0.250000X-0.237500X0.250000X0.237500X-0.250000X0.237500X0*%
%ADD29RoundRect,0.150000X-0.150000X0.587500X-0.150000X-0.587500X0.150000X-0.587500X0.150000X0.587500X0*%
%ADD30RoundRect,0.250000X-0.650000X0.412500X-0.650000X-0.412500X0.650000X-0.412500X0.650000X0.412500X0*%
%ADD31RoundRect,0.250000X0.625000X-0.400000X0.625000X0.400000X-0.625000X0.400000X-0.625000X-0.400000X0*%
%ADD32RoundRect,0.150000X-0.150000X0.512500X-0.150000X-0.512500X0.150000X-0.512500X0.150000X0.512500X0*%
%ADD33RoundRect,0.150000X-0.825000X-0.150000X0.825000X-0.150000X0.825000X0.150000X-0.825000X0.150000X0*%
%ADD34RoundRect,0.237500X0.300000X0.237500X-0.300000X0.237500X-0.300000X-0.237500X0.300000X-0.237500X0*%
%ADD35R,2.500000X3.300000*%
%ADD36R,2.900000X5.400000*%
%ADD37R,1.780000X2.000000*%
%ADD38RoundRect,0.250000X-0.500000X0.950000X-0.500000X-0.950000X0.500000X-0.950000X0.500000X0.950000X0*%
%ADD39RoundRect,0.250000X-0.500000X0.275000X-0.500000X-0.275000X0.500000X-0.275000X0.500000X0.275000X0*%
%ADD40RoundRect,0.150000X-0.587500X-0.150000X0.587500X-0.150000X0.587500X0.150000X-0.587500X0.150000X0*%
%ADD41RoundRect,0.150000X0.512500X0.150000X-0.512500X0.150000X-0.512500X-0.150000X0.512500X-0.150000X0*%
G04 APERTURE END LIST*
D10*
%TO.C,REF\u002A\u002A*%
X94334037Y-82563464D03*
X57234037Y-40563464D03*
%TD*%
D11*
%TO.C,TP2*%
X41000000Y-53000000D03*
%TD*%
D12*
%TO.C,J3*%
X57234037Y-91197500D03*
D13*
X59774037Y-91197500D03*
%TD*%
D11*
%TO.C,TP1*%
X111600000Y-54500000D03*
%TD*%
%TO.C,TP3*%
X111400000Y-80300000D03*
%TD*%
D14*
%TO.C,H1*%
X50900000Y-40532788D03*
%TD*%
D15*
%TO.C,J9*%
X101000000Y-80275000D03*
D16*
X101000000Y-82815000D03*
X101000000Y-85355000D03*
%TD*%
D17*
%TO.C,J4*%
X107320000Y-43770000D03*
X108590000Y-43770000D03*
X109860000Y-43770000D03*
X111130000Y-43770000D03*
X112400000Y-43770000D03*
X112400000Y-42500000D03*
X111130000Y-42500000D03*
X109860000Y-42500000D03*
X108590000Y-42500000D03*
X107320000Y-42500000D03*
%TD*%
D18*
%TO.C,J5*%
X90000000Y-91150000D03*
D19*
X88750000Y-91150000D03*
X87500000Y-91150000D03*
%TD*%
D14*
%TO.C,H2*%
X121900000Y-90532788D03*
%TD*%
D11*
%TO.C,TP4*%
X111400000Y-67400000D03*
%TD*%
D20*
%TO.C,H3*%
X121900000Y-40532788D03*
%TD*%
D21*
%TO.C,J8*%
X102450000Y-91000000D03*
D22*
X101200000Y-91000000D03*
X99950000Y-91000000D03*
X98700000Y-91000000D03*
X97450000Y-91000000D03*
X96200000Y-91000000D03*
%TD*%
D23*
%TO.C,J10*%
X61060000Y-83200000D03*
X63600000Y-83200000D03*
%TD*%
D20*
%TO.C,H4*%
X50900000Y-90532788D03*
%TD*%
D24*
%TO.C,J1*%
X131200000Y-71950000D03*
D25*
X131200000Y-73200000D03*
X131200000Y-74450000D03*
X131200000Y-75700000D03*
X131200000Y-76950000D03*
X131200000Y-78200000D03*
%TD*%
D18*
%TO.C,J6*%
X81250000Y-91150000D03*
D19*
X80000000Y-91150000D03*
X78750000Y-91150000D03*
%TD*%
D15*
%TO.C,J7*%
X74000000Y-80275000D03*
D16*
X74000000Y-82815000D03*
X74000000Y-85355000D03*
%TD*%
D24*
%TO.C,J2*%
X131200000Y-60000000D03*
D25*
X131200000Y-61250000D03*
X131200000Y-62500000D03*
X131200000Y-63750000D03*
%TD*%
D26*
%TO.C,R30*%
X97900000Y-54875000D03*
X97900000Y-56700000D03*
%TD*%
%TO.C,R32*%
X96900000Y-71875000D03*
X96900000Y-73700000D03*
%TD*%
%TO.C,R25*%
X82391666Y-75825000D03*
X82391666Y-77650000D03*
%TD*%
D27*
%TO.C,R44*%
X63712500Y-76400000D03*
X61887500Y-76400000D03*
%TD*%
%TO.C,R16*%
X95112500Y-52300000D03*
X93287500Y-52300000D03*
%TD*%
D28*
%TO.C,R23*%
X86087500Y-73500000D03*
X87912500Y-73500000D03*
%TD*%
D26*
%TO.C,R19*%
X85500000Y-54587500D03*
X85500000Y-56412500D03*
%TD*%
%TO.C,R24*%
X89164444Y-75825000D03*
X89164444Y-77650000D03*
%TD*%
D28*
%TO.C,R35*%
X105000000Y-73500000D03*
X106825000Y-73500000D03*
%TD*%
D29*
%TO.C,Q2*%
X87250000Y-54362500D03*
X89150000Y-54362500D03*
X88200000Y-56237500D03*
%TD*%
%TO.C,Q1*%
X93350000Y-54725000D03*
X95250000Y-54725000D03*
X94300000Y-56600000D03*
%TD*%
D26*
%TO.C,R31*%
X103500000Y-54587500D03*
X103500000Y-56412500D03*
%TD*%
D28*
%TO.C,R43*%
X58287500Y-76400000D03*
X60112500Y-76400000D03*
%TD*%
D29*
%TO.C,Q6*%
X105050000Y-54662500D03*
X106950000Y-54662500D03*
X106000000Y-56537500D03*
%TD*%
D28*
%TO.C,R22*%
X92391667Y-73500000D03*
X94216667Y-73500000D03*
%TD*%
D27*
%TO.C,R45*%
X73450000Y-74590000D03*
X71625000Y-74590000D03*
%TD*%
D28*
%TO.C,R51*%
X112487500Y-60200000D03*
X114312500Y-60200000D03*
%TD*%
D27*
%TO.C,R29*%
X107112500Y-52300000D03*
X105287500Y-52300000D03*
%TD*%
D30*
%TO.C,C18*%
X61000000Y-67637500D03*
X61000000Y-70762500D03*
%TD*%
D31*
%TO.C,R26*%
X89600000Y-83350000D03*
X89600000Y-80250000D03*
%TD*%
D32*
%TO.C,Q3*%
X90975000Y-75650000D03*
X92875000Y-75650000D03*
X91925000Y-77925000D03*
%TD*%
D33*
%TO.C,U10*%
X117600000Y-64070000D03*
X117600000Y-62800000D03*
X117600000Y-61530000D03*
X117600000Y-60260000D03*
X122550000Y-60260000D03*
X122550000Y-61530000D03*
X122550000Y-62800000D03*
X122550000Y-64070000D03*
%TD*%
D31*
%TO.C,R27*%
X84700000Y-83350000D03*
X84700000Y-80250000D03*
%TD*%
D34*
%TO.C,C24*%
X122462500Y-65800000D03*
X120737500Y-65800000D03*
%TD*%
D26*
%TO.C,R18*%
X91600000Y-54787500D03*
X91600000Y-56612500D03*
%TD*%
%TO.C,R33*%
X103300000Y-71875000D03*
X103300000Y-73700000D03*
%TD*%
D35*
%TO.C,D10*%
X70000000Y-69200000D03*
X76900000Y-69190000D03*
%TD*%
D36*
%TO.C,L3*%
X61650000Y-58300000D03*
X71550000Y-58300000D03*
%TD*%
D37*
%TO.C,U6*%
X87100000Y-59670000D03*
X89640000Y-59670000D03*
X92180000Y-59670000D03*
X94720000Y-59670000D03*
X97260000Y-59670000D03*
X99800000Y-59670000D03*
X102340000Y-59670000D03*
X104880000Y-59670000D03*
X104880000Y-69200000D03*
X102340000Y-69200000D03*
X99800000Y-69200000D03*
X97260000Y-69200000D03*
X94720000Y-69200000D03*
X92180000Y-69200000D03*
X89640000Y-69200000D03*
X87100000Y-69200000D03*
%TD*%
D26*
%TO.C,R53*%
X126200000Y-62687500D03*
X126200000Y-64512500D03*
%TD*%
%TO.C,R37*%
X102710000Y-75825000D03*
X102710000Y-77650000D03*
%TD*%
D38*
%TO.C,D6*%
X94100000Y-90050000D03*
D39*
X94100000Y-87675000D03*
%TD*%
D29*
%TO.C,Q5*%
X99500000Y-54700000D03*
X101400000Y-54700000D03*
X100450000Y-56575000D03*
%TD*%
D28*
%TO.C,R34*%
X98695833Y-73500000D03*
X100520833Y-73500000D03*
%TD*%
D32*
%TO.C,Q4*%
X84237500Y-75650000D03*
X86137500Y-75650000D03*
X85187500Y-77925000D03*
%TD*%
D26*
%TO.C,R21*%
X84100000Y-71875000D03*
X84100000Y-73700000D03*
%TD*%
%TO.C,R20*%
X90500000Y-71875000D03*
X90500000Y-73700000D03*
%TD*%
D32*
%TO.C,Q8*%
X104450000Y-75650000D03*
X106350000Y-75650000D03*
X105400000Y-77925000D03*
%TD*%
D40*
%TO.C,Q10*%
X112325000Y-64000000D03*
X112325000Y-62100000D03*
X114200000Y-63050000D03*
%TD*%
D28*
%TO.C,R50*%
X108487500Y-64000000D03*
X110312500Y-64000000D03*
%TD*%
D27*
%TO.C,R28*%
X101112500Y-52300000D03*
X99287500Y-52300000D03*
%TD*%
%TO.C,R46*%
X69562500Y-74590000D03*
X67737500Y-74590000D03*
%TD*%
D32*
%TO.C,Q7*%
X97712500Y-75650000D03*
X99612500Y-75650000D03*
X98662500Y-77925000D03*
%TD*%
D31*
%TO.C,R39*%
X105100000Y-83350000D03*
X105100000Y-80250000D03*
%TD*%
D30*
%TO.C,C23*%
X80100000Y-65475000D03*
X80100000Y-68600000D03*
%TD*%
D27*
%TO.C,R17*%
X89112500Y-52300000D03*
X87287500Y-52300000D03*
%TD*%
D26*
%TO.C,R36*%
X95937222Y-75825000D03*
X95937222Y-77650000D03*
%TD*%
%TO.C,R52*%
X126200000Y-59087500D03*
X126200000Y-60912500D03*
%TD*%
D31*
%TO.C,R38*%
X98300000Y-83350000D03*
X98300000Y-80250000D03*
%TD*%
D41*
%TO.C,U9*%
X66250000Y-69990000D03*
X66250000Y-70940000D03*
X66250000Y-71890000D03*
X63975000Y-71890000D03*
X63975000Y-70940000D03*
X63975000Y-69990000D03*
%TD*%
D40*
%TO.C,Q9*%
X60200000Y-74600000D03*
X60200000Y-72700000D03*
X62075000Y-73650000D03*
%TD*%
M02*
