M48
; DRILL file {KiCad 9.0.4} date 2025-09-18T14:17:01+0300
; FORMAT={-:-/ absolute / metric / decimal}
; #@! TF.CreationDate,2025-09-18T14:17:01+03:00
; #@! TF.GenerationSoftware,Kicad,Pcbnew,9.0.4
; #@! TF.FileFunction,Plated,1,4,PTH
FMAT,2
METRIC
; #@! TA.AperFunction,Plated,PTH,ViaDrill
T1C0.300
; #@! TA.AperFunction,Plated,PTH,ComponentDrill
T2C0.500
; #@! TA.AperFunction,Plated,PTH,ComponentDrill
T3C0.600
; #@! TA.AperFunction,Plated,PTH,ComponentDrill
T4C0.650
; #@! TA.AperFunction,Plated,PTH,ComponentDrill
T5C0.900
; #@! TA.AperFunction,Plated,PTH,ComponentDrill
T6C1.000
; #@! TA.AperFunction,Plated,PTH,ComponentDrill
T7C1.020
; #@! TA.AperFunction,Plated,PTH,ComponentDrill
T8C2.200
; #@! TA.AperFunction,Plated,PTH,ComponentDrill
T9C2.700
; #@! TA.AperFunction,Plated,PTH,ComponentDrill
T10C3.200
%
G90
G05
T1
X39.5Y-47.3
X43.7Y-63.7
X44.2Y-51.4
X44.3Y-63.7
X45.5Y-58.2
X45.6Y-60.4
X47.8Y-47.2
X48.6Y-55.6
X49.2Y-53.3
X51.0Y-61.1
X52.3Y-56.8
X52.5Y-53.6
X53.1Y-56.8
X53.2Y-53.6
X53.8Y-56.8
X54.0Y-53.6
X54.6Y-56.8
X54.7Y-53.6
X54.8Y-62.6
X55.6Y-62.6
X56.3Y-54.5
X56.3Y-62.6
X56.4Y-55.7
X56.7Y-53.7
X57.1Y-55.0
X58.3Y-48.4
X58.5Y-58.8
X59.1Y-70.6
X59.1Y-71.3
X59.6Y-57.0
X59.65Y-61.15
X59.9Y-70.6
X59.9Y-71.3
X60.3Y-48.4
X61.1Y-61.7
X61.9Y-61.7
X62.6Y-44.8
X62.6Y-45.7
X62.6Y-46.6
X62.7Y-61.7
X63.5Y-44.8
X63.5Y-45.7
X63.5Y-46.6
X64.4Y-44.8
X64.4Y-45.7
X64.4Y-46.6
X64.4Y-59.9
X65.1Y-72.8
X66.2Y-73.4
X66.3Y-45.6
X66.5Y-47.1
X66.8Y-76.1
X66.9Y-48.4
X67.6Y-71.0
X69.6Y-48.2
X69.7Y-53.0
X71.8Y-50.8
X71.8Y-51.6
X75.9Y-47.3
X76.2Y-50.3
X76.2Y-63.1
X76.6Y-46.0
X76.8Y-43.4
X76.8Y-54.3
X77.1Y-42.2
X80.7Y-67.5
X80.9Y-69.8
X81.6Y-73.1
X81.7Y-67.9
X81.7Y-68.8
X81.7Y-69.8
X82.9Y-74.8
X82.9Y-84.0
X84.1Y-54.5
X84.2Y-85.6
X85.4Y-40.5
X85.7Y-42.2
X89.0Y-72.1
X89.2Y-51.0
X89.5Y-71.0
X90.1Y-81.9
X90.6Y-54.6
X90.8Y-53.1
X91.6Y-74.4
X92.1Y-84.2
X93.6Y-50.5
X93.6Y-70.8
X94.1Y-86.6
X94.7Y-71.1
X95.5Y-72.3
X95.9Y-74.4
X96.2Y-50.3
X96.4Y-56.1
X96.5Y-57.4
X96.618Y-54.553
X100.0Y-49.8
X101.1Y-71.2
X101.5Y-53.5
X101.8Y-73.3
X101.8Y-74.6
X102.5Y-61.7
X102.7Y-54.5
X105.0Y-57.1
X105.4Y-74.6
X106.8Y-69.0
X107.0Y-53.5
X107.1Y-51.0
X107.9Y-73.9
X108.2Y-59.9
X108.9Y-62.1
X109.2Y-81.5
X112.1Y-71.6
X112.2Y-82.8
X112.3Y-58.2
X114.0Y-70.7
X114.1Y-82.2
X117.0Y-67.5
X117.5Y-55.8
X118.7Y-80.0
X118.9Y-67.1
X119.9Y-55.9
X121.3Y-68.4
X121.5Y-79.8
X123.6Y-53.8
X124.797Y-58.995
X125.1Y-69.0
X126.4Y-56.9
T2
X78.75Y-91.15
X80.0Y-91.15
X81.25Y-91.15
X87.5Y-91.15
X88.75Y-91.15
X90.0Y-91.15
T3
X96.2Y-91.0
X97.45Y-91.0
X98.7Y-91.0
X99.95Y-91.0
X101.2Y-91.0
X102.45Y-91.0
X131.2Y-60.0
X131.2Y-61.25
X131.2Y-62.5
X131.2Y-63.75
X131.2Y-71.95
X131.2Y-73.2
X131.2Y-74.45
X131.2Y-75.7
X131.2Y-76.95
X131.2Y-78.2
T4
X107.32Y-42.5
X107.32Y-43.77
X108.59Y-42.5
X108.59Y-43.77
X109.86Y-42.5
X109.86Y-43.77
X111.13Y-42.5
X111.13Y-43.77
X112.4Y-42.5
X112.4Y-43.77
T5
X41.0Y-53.0
X111.4Y-67.4
X111.4Y-80.3
X111.6Y-54.5
T6
X57.234Y-91.197
X59.774Y-91.197
X74.0Y-80.275
X74.0Y-82.815
X74.0Y-85.355
X101.0Y-80.275
X101.0Y-82.815
X101.0Y-85.355
T7
X61.06Y-83.2
X63.6Y-83.2
T8
X57.234Y-40.563
X94.334Y-82.563
T9
X50.9Y-90.533
X121.9Y-40.533
T10
X50.9Y-40.533
X121.9Y-90.533
M30
